/* XPM */
static const char * record_xpm[] = {
"16 16 29 1",
" 	c None",
".	c #FFE4E4",
"+	c #FF7777",
"@	c #FF2E2E",
"#	c #FF0000",
"$	c #FF0808",
"%	c #FF9B9B",
"&	c #FF1010",
"*	c #FF3333",
"=	c #FF4141",
"-	c #FF3E3E",
";	c #FF1E1E",
">	c #FF1717",
",	c #FF0606",
"'	c #FF0E0E",
")	c #FF0C0C",
"!	c #FF3C3C",
"~	c #FF2525",
"{	c #FF3838",
"]	c #FF0404",
"^	c #FF3F3F",
"/	c #FF2626",
"(	c #FF3A3A",
"_	c #FF3030",
":	c #FF0505",
"<	c #FF1212",
"[	c #FF2121",
"}	c #FF3535",
"|	c #FF1919",
"                ",
"    .+@#$@+.    ",
"   %$&*=-*;$%   ",
"  %#>======*$%  ",
" .$,@=======*$. ",
" +#'=========;+ ",
" @#'=========*@ ",
" $#)!========-$ ",
" $#,~========{$ ",
" @#]>{======^/@ ",
" +##]>{!===(_:+ ",
" .$##]<[}}_|$$. ",
"  %##########%  ",
"   %$######$%   ",
"    .+@#$@+.    ",
"                "};
